{"title":"Sint-2010 AC3 XviD DVDRip Dutch-CC","uid":6806398,"size":1478138955,"categoryP":"video","categoryS":"movies","magnet":"?xt=urn:btih:4bb44233cfe64117a25d6930da52f221d1ed6f39&amp;dn=Sint-2010+AC3+XviD+DVDRip+Dutch-CC&amp;tr=udp%3A%2F%2Ftracker.openbittorrent.com%3A80&amp;tr=udp%3A%2F%2Fopen.demonii.com%3A1337&amp;tr=udp%3A%2F%2Ftracker.coppersurfer.tk%3A6969&amp;tr=udp%3A%2F%2Fexodus.desync.com%3A6969","seeders":0,"leechers":1,"uploader":"Caveman44","files":-1,"time":1320878409,"description":"[img]http://img402.imageshack.us/img402/1216/65128q.jpg[/img]\n &lt;a href=&quot;\nhttp://www.imdb.com/title/tt1167675/&quot; rel=&quot;nofollow&quot; target=&quot;_NEW&quot;&gt;\nhttp://www.imdb.com/title/tt1167675/&lt;/a&gt;\n &lt;a href=&quot;\nhttp://www.moviemeter.nl/film/65128&quot; rel=&quot;nofollow&quot; target=&quot;_NEW&quot;&gt;\nhttp://www.moviemeter.nl/film/65128&lt;/a&gt;\n\nSource: Pal Retail\n\nAudio: Dutch  Subs: Dutch (for deaf people).\n\nSample and Screens included.\n\nGeneral\nComplete name                    : Sint-2010 AC3 XviD DVDRip Dutch-CC.avi\nFormat                           : AVI\nFormat/Info                      : Audio Video Interleave\nFile size                        : 1.36 GiB\nDuration                         : 1h 24mn\nOverall bit rate                 : 2 312 Kbps\nWriting application              : VirtualDubMod 1.5.4.1 (build 2178/release)\nWriting library                  : VirtualDubMod build 2178/release\n\nVideo\nID                               : 0\nFormat                           : MPEG-4 Visual\nFormat profile                   : Simple@L3\nFormat settings, BVOP            : No\nFormat settings, QPel            : No\nFormat settings, GMC             : No warppoints\nFormat settings, Matrix          : Default (H.263)\nCodec ID                         : XVID\nCodec ID/Hint                    : XviD\nDuration                         : 1h 24mn\nBit rate                         : 1 854 Kbps\nWidth                            : 720 pixels\nHeight                           : 304 pixels\nDisplay aspect ratio             : 2.35:1\nFrame rate                       : 25.000 fps\nResolution                       : 8 bits\nColorimetry                      : 4:2:0\nScan type                        : Progressive\nBits/(Pixel*Frame)               : 0.339\nStream size                      : 1.09 GiB (80%)\nWriting library                  : XviD 1.1.2 (UTC 2006-11-01)\n\nAudio\nID                               : 1\nFormat                           : AC-3\nFormat/Info                      : Audio Coding 3\nCodec ID                         : 2000\nDuration                         : 1h 24mn\nBit rate mode                    : Constant\nBit rate                         : 448 Kbps\nChannel(s)                       : 6 channels\nChannel positions                : Front: L C R, Surround: L R, LFE\nSampling rate                    : 48.0 KHz\nStream size                      : 270 MiB (19%)\nAlignment                        : Split accross interleaves\nInterleave, duration             : 40 ms (1.00 video frame)\nInterleave, preload duration     : 500 ms\n\n[img]http://img836.imageshack.us/img836/4338/sint2010ac3xviddvdripdu.jpg[/img]","torrent":{"xt":"urn:btih:4bb44233cfe64117a25d6930da52f221d1ed6f39","amp;dn":"Sint-2010+AC3+XviD+DVDRip+Dutch-CC","amp;tr":["udp%3A%2F%2Ftracker.openbittorrent.com%3A80","udp%3A%2F%2Fopen.demonii.com%3A1337","udp%3A%2F%2Ftracker.coppersurfer.tk%3A6969","udp%3A%2F%2Fexodus.desync.com%3A6969"],"infoHash":"4bb44233cfe64117a25d6930da52f221d1ed6f39","infoHashBuffer":{"type":"Buffer","data":[75,180,66,51,207,230,65,23,162,93,105,48,218,82,242,33,209,237,111,57]},"announce":[],"urlList":[]}}